<svg width="219" height="40" viewBox="0 0 219 40" fill="none" xmlns="http://www.w3.org/2000/svg">
<path d="M57.1667 40C53.6192 40 51.0572 39.1162 49.4805 37.3486C47.9039 35.581 47.1155 32.7314 47.1155 28.8V24.96H54.8017V29.8514C54.8017 31.8019 55.4233 32.7771 56.6664 32.7771C57.3638 32.7771 57.8489 32.579 58.1218 32.1829C58.3947 31.7562 58.5311 31.0552 58.5311 30.08C58.5311 28.8 58.3795 27.7486 58.0763 26.9257C57.7731 26.0724 57.379 25.3714 56.8938 24.8229C56.439 24.2438 55.6052 23.36 54.3924 22.1714L51.0268 18.7886C48.4193 16.2286 47.1155 13.3943 47.1155 10.2857C47.1155 6.93333 47.8735 4.38857 49.3896 2.65143C50.9359 0.88381 53.1796 0 56.1207 0C59.6378 0 62.1696 0.944761 63.7159 2.83428C65.2622 4.69333 66.0354 7.61905 66.0354 11.6114H58.0763L58.0308 8.91428C58.0308 8.39619 57.8792 7.98476 57.576 7.68C57.3032 7.37524 56.909 7.22286 56.3935 7.22286C55.7871 7.22286 55.3323 7.39048 55.0291 7.72572C54.7259 8.06095 54.5743 8.51809 54.5743 9.09714C54.5743 10.3771 55.302 11.7029 56.7574 13.0743L61.3054 17.4629C62.3667 18.499 63.2459 19.4895 63.9433 20.4343C64.6407 21.3486 65.2016 22.4457 65.6261 23.7257C66.0506 24.9752 66.2628 26.4686 66.2628 28.2057C66.2628 32.0762 65.5503 35.0171 64.1252 37.0286C62.7305 39.0095 60.411 40 57.1667 40Z" fill="#333333"/>
<path d="M69.3072 39.6343V0.365715H77.0389V16.0914L80.6773 0.365715H88.5454L84.1793 18.3314L89.455 39.6343H81.3595L77.0843 20.6171V39.6343H69.3072Z" fill="#333333"/>
<path d="M90.8504 39.6343V0.365715H98.4001V39.6343H90.8504Z" fill="#333333"/>
<path d="M101.973 39.6343V0.365715H110.023L113.616 19.1543V0.365715H121.166V39.6343H113.525L109.614 19.9771V39.6343H101.973Z" fill="#333333"/>
<path d="M134.176 40C131.325 40 129.036 39.101 127.308 37.3029C125.61 35.5048 124.761 33.0362 124.761 29.8971V11.7943C124.761 7.89333 125.534 4.95238 127.081 2.97143C128.627 0.990476 131.053 0 134.357 0C137.238 0 139.557 0.792381 141.316 2.37714C143.075 3.96191 143.954 6.24762 143.954 9.23429V16H136.177V10.1943C136.177 9.06667 136.04 8.28952 135.767 7.86286C135.494 7.43619 135.025 7.22286 134.357 7.22286C133.66 7.22286 133.175 7.46667 132.902 7.95429C132.66 8.4419 132.538 9.15809 132.538 10.1029V29.8057C132.538 30.8419 132.69 31.6038 132.993 32.0914C133.296 32.5486 133.751 32.7771 134.357 32.7771C135.57 32.7771 136.177 31.7867 136.177 29.8057V22.72H144.045V30.1257C144.045 36.7086 140.755 40 134.176 40Z" fill="#333333"/>
<path d="M147.075 39.6343V0.365715H162.721V7.95429H155.034V15.5886H162.402V22.9943H155.034V32H163.221V39.6343H147.075Z" fill="#333333"/>
<path d="M166.273 39.6343V0.365715H174.096V32.96H182.146V39.6343H166.273Z" fill="#333333"/>
<path d="M184.805 39.6343V0.365715H192.627V32.96H200.677V39.6343H184.805Z" fill="#333333"/>
<path d="M198.06 10.4348L199.104 0.0121333H202.766L203.797 10.4348H201.746L201.595 8.74823H200.287L200.161 10.4348H198.06ZM200.45 7.08594H201.432L200.954 1.78362H200.853L200.45 7.08594Z" fill="#333333"/>
<path d="M204.582 0.0121333H207.564C208.336 0.0121333 208.914 0.218402 209.3 0.63094C209.686 1.04348 209.883 1.6542 209.892 2.46309L209.917 7.34075C209.925 8.36805 209.741 9.14055 209.363 9.65824C208.986 10.1759 208.361 10.4348 207.488 10.4348H204.582V0.0121333ZM207.136 8.59049C207.53 8.59049 207.727 8.40445 207.727 8.03236V2.65723C207.727 2.42265 207.706 2.24874 207.664 2.13549C207.631 2.01416 207.564 1.93327 207.463 1.89282C207.362 1.85238 207.207 1.83215 206.998 1.83215H206.759V8.59049H207.136Z" fill="#333333"/>
<path d="M211.907 10.4348L210.573 0H212.637L213.429 7.09808L214.134 0H216.197L214.864 10.4348H211.907Z" fill="#333333"/>
<path d="M216.798 10.4348V8.6633H219V10.4348H216.798Z" fill="#333333"/>
<mask id="mask0" style="mask-type:alpha" maskUnits="userSpaceOnUse" x="0" y="0" width="41" height="40">
<rect width="40.1355" height="40" fill="#C4C4C4"/>
</mask>
<g mask="url(#mask0)">
<mask id="mask1" style="mask-type:alpha" maskUnits="userSpaceOnUse" x="0" y="0" width="40" height="40">
<path fill-rule="evenodd" clip-rule="evenodd" d="M4.52189 18.3339L39.2532 18.3339C41.0079 26.5217 34.8007 39.2034 20.1065 39.2034C9.86514 39.2034 1.72577 30.9426 1.72577 26.1599C13.0728 25.3634 24.9847 25.4109 29.4572 30.9426C31.2383 30.3628 34.8005 27.8991 34.8005 22.6817L0.872447 22.6087C-2.26856 14.2748 3.47159 1.81212 20.1065 0.942558C25.1529 0.942558 34.7425 3.55125 37.9485 13.986C31.7146 15.2904 18.4144 16.2469 9.86515 9.63821C8.38092 10.0461 5.23435 12.3562 4.52189 18.3339ZM26.1651 33.986C23.6921 35.1455 17.0004 36.16 10.0177 30.9426C13.9455 30.073 22.6738 29.4643 26.1651 33.986ZM14.4589 6.45822C16.315 8.45703 22.1364 11.8977 30.5734 9.67013C27.2597 7.3965 19.3976 3.57102 14.4589 6.45822Z" fill="#C4C4C4"/>
</mask>
<g mask="url(#mask1)">
<ellipse cx="20.0669" cy="19.9999" rx="19.1952" ry="19.1304" fill="url(#paint0_linear)"/>
</g>
</g>
<defs>
<linearGradient id="paint0_linear" x1="-0.772592" y1="19.9998" x2="38.591" y2="19.9998" gradientUnits="userSpaceOnUse">
<stop stop-color="#969696"/>
<stop offset="0.284374" stop-color="#DCDCDC"/>
<stop offset="0.701522" stop-color="#8D8E8E"/>
<stop offset="1" stop-color="#BEBFBF"/>
</linearGradient>
</defs>
</svg>
